<svg version="1.1" id="Layer_1" xmlns="http://www.w3.org/2000/svg" xmlns:xlink="http://www.w3.org/1999/xlink" x="0px" y="0px"
	 width="100%" viewBox="0 0 352 328" enable-background="new 0 0 352 328" xml:space="preserve">
<path fill="#010000" opacity="1.000000" stroke="none" 
	d="
M353.000000,118.000000 
	C353.000000,187.308029 352.972809,256.116089 353.084564,324.923981 
	C353.089844,328.179993 352.659454,329.108307 349.078735,329.104370 
	C234.454361,328.977539 119.829788,328.976166 5.205416,329.106476 
	C1.481342,329.110718 0.908520,328.196167 0.912051,324.708313 
	C1.019845,218.247574 1.017371,111.786697 0.920809,5.325933 
	C0.917736,1.937296 1.349207,0.881540 5.171153,0.886205 
	C119.795494,1.026111 234.420059,1.021229 349.044464,0.899541 
	C352.555023,0.895814 353.104889,1.710957 353.091980,5.041982 
	C352.946594,42.527546 353.000000,80.013878 353.000000,118.000000 
z"/>
<path fill="#A78F56" opacity="1.000000" stroke="none" 
	d="
M192.395660,315.404541 
	C183.386383,315.950500 174.763870,316.127533 165.758865,315.337921 
	C161.513687,315.315033 157.841385,314.269104 153.719131,313.422363 
	C152.752014,313.506561 152.217209,313.493896 151.416565,313.438171 
	C149.919540,312.886505 148.502258,313.175964 146.938232,312.360565 
	C146.566345,312.221436 146.285736,312.245819 146.159927,312.182526 
	C145.735977,311.679138 145.340454,311.359619 144.520477,311.370087 
	C143.680847,311.517731 143.168259,311.455902 142.399231,311.351868 
	C140.073990,311.070984 138.245880,310.111298 135.967163,309.297607 
	C135.590683,309.221588 135.106110,309.291412 135.106110,309.291412 
	C135.106110,309.291412 134.617691,309.257843 134.387085,309.175781 
	C133.970032,309.200226 133.783600,309.306763 133.404510,309.155182 
	C133.211868,308.897034 133.090363,308.942200 133.055145,308.887787 
	C132.084259,308.361237 131.076202,308.032471 129.914337,307.317200 
	C118.718513,304.223877 108.893761,298.936829 99.512794,292.820770 
	C81.718307,281.219452 66.750832,266.706085 54.986252,248.564941 
	C51.862637,243.875519 50.437134,238.576477 46.671371,234.245422 
	C46.013241,233.200882 45.598206,232.409302 45.168633,231.278214 
	C44.800323,228.659164 44.451866,226.404984 44.805523,224.060333 
	C45.114918,222.009094 45.891441,220.640335 48.554546,220.491516 
	C49.280453,220.521408 49.566639,220.535385 50.270824,220.601898 
	C51.219887,220.811417 51.678864,221.086670 52.310509,221.781204 
	C52.701180,222.279541 52.841118,222.486694 53.178059,223.004730 
	C53.619354,223.723419 53.852612,224.137436 54.232910,224.858490 
	C54.993553,226.325516 55.575794,227.502670 56.422432,228.904541 
	C56.708576,229.362305 56.825024,229.544617 57.119766,230.001526 
	C57.415581,230.462830 57.533112,230.649567 57.815834,231.126343 
	C58.201473,231.815552 58.417110,232.217331 58.794540,232.934692 
	C76.404419,264.241669 101.829498,285.699432 135.447205,297.454254 
	C146.364410,301.271576 157.669952,302.926117 169.459000,304.184113 
	C175.994507,305.070007 182.157486,305.076569 188.704742,304.159302 
	C191.165985,303.564758 193.285751,303.555725 195.791931,303.528015 
	C197.201706,303.508392 198.223724,303.489838 199.623871,303.272766 
	C202.922058,302.772308 205.717377,301.128601 209.132141,302.620667 
	C211.403534,306.107086 208.848404,307.834167 207.113556,309.777435 
	C206.176590,310.826965 204.549149,311.175537 203.710052,312.928436 
	C199.927475,314.289917 196.358627,314.849304 192.395660,315.404541 
z"/>
<path fill="#A78F55" opacity="1.000000" stroke="none" 
	d="
M307.057831,92.755501 
	C308.087555,94.162758 308.854523,95.429359 309.579041,97.018250 
	C309.589905,101.431602 306.882782,101.969841 303.234619,101.788948 
	C301.891388,101.564400 300.980774,101.556053 299.798462,100.944252 
	C299.284271,100.478271 299.106903,100.267838 298.681946,99.741608 
	C298.276184,99.219170 298.118042,99.012543 297.736511,98.495728 
	C297.242676,97.776009 296.994171,97.353729 296.621429,96.604012 
	C295.566925,94.539001 294.582947,92.837051 293.110962,91.074051 
	C292.648560,90.507721 292.394836,90.178566 291.978088,89.587982 
	C291.692322,89.162704 291.577454,88.992790 291.285400,88.568893 
	C290.987610,88.144295 290.867004,87.973671 290.386536,87.271454 
	C289.907227,86.553665 289.787842,86.367447 289.485809,85.897354 
	C271.605042,61.693535 249.036011,44.319813 220.760437,34.617428 
	C218.897919,33.978325 216.823807,33.753017 215.496979,31.583403 
	C215.430817,30.978426 215.557526,30.696783 215.508743,30.459360 
	C215.449173,30.169310 215.438080,30.547024 215.184326,30.804138 
	C214.283691,31.814140 213.411819,32.000954 212.112854,31.750187 
	C211.160614,31.501947 210.527359,31.357452 209.603271,31.100609 
	C208.906708,30.925749 208.508499,30.835012 207.810989,30.699799 
	C206.913193,30.562180 206.311981,30.487070 205.403503,30.399021 
	C204.282211,30.237831 203.490311,30.002409 202.381317,29.750095 
	C201.044312,29.469807 199.989807,29.387482 198.653015,29.063698 
	C197.917557,28.903389 197.493790,28.818022 196.741577,28.691975 
	C194.611938,28.405468 192.798752,28.471785 190.626404,28.450619 
	C188.238831,28.483273 186.248215,27.977554 183.838745,28.073387 
	C179.655487,27.665686 175.848038,25.745495 171.666656,28.194378 
	C169.393555,28.463909 167.503098,28.435970 165.194672,28.405725 
	C163.920273,28.354918 163.070572,28.262251 161.800034,27.975773 
	C160.836639,27.560658 160.382904,27.168049 159.776688,26.283504 
	C158.733810,20.923742 159.349197,20.422976 164.103943,19.180283 
	C175.386063,16.231619 186.668762,16.449326 198.483917,18.359127 
	C222.354828,20.682735 243.211533,29.645847 262.273834,43.116512 
	C279.170410,55.056755 293.583344,69.336884 303.714417,87.598953 
	C304.269318,88.599167 305.054108,89.471870 305.853271,90.743866 
	C306.517792,91.449661 306.473969,92.130043 307.057831,92.755501 
z"/>
<path fill="#A68E57" opacity="1.000000" stroke="none" 
	d="
M301.366760,100.379471 
	C304.257965,99.940399 306.755432,99.527260 309.199707,97.602661 
	C315.393219,107.354927 319.228302,118.231956 322.081940,129.356186 
	C326.436951,146.332825 327.678528,163.691498 326.021515,181.162079 
	C324.656128,195.557617 321.021912,209.444153 315.445435,223.155289 
	C311.988495,223.338150 310.320343,225.733994 308.480957,227.712448 
	C306.801453,229.518906 305.159363,230.251007 302.806213,228.217957 
	C301.408661,225.752579 302.791260,224.003891 303.561981,222.252563 
	C311.173706,204.956177 315.160889,186.772461 315.352295,167.982147 
	C315.572083,146.406570 310.786194,125.726128 301.598755,106.128967 
	C300.785553,104.394394 299.258728,102.673035 301.366760,100.379471 
z"/>
<path fill="#A48D57" opacity="1.000000" stroke="none" 
	d="
M50.358559,221.791290 
	C45.563400,223.168625 47.195419,227.645508 45.310448,230.614380 
	C38.766167,219.336655 35.173443,206.743851 32.725876,193.870422 
	C30.012506,179.598969 29.429533,165.127945 30.923677,150.650299 
	C32.687500,133.559601 37.164932,117.191200 44.842884,101.430420 
	C48.591671,100.232758 49.706009,102.298134 49.876572,105.181366 
	C49.997356,107.223167 50.509743,109.050812 51.721336,111.182732 
	C49.594429,121.324493 45.618179,130.529190 43.964657,140.411072 
	C43.085728,145.663773 42.625923,150.934753 41.979004,156.608444 
	C40.964764,162.497070 41.127495,168.000641 41.732372,173.909912 
	C42.752407,188.793182 46.043755,202.766556 50.874123,216.418137 
	C51.461334,218.077713 52.204319,219.909515 50.358559,221.791290 
z"/>
<path fill="#A68F59" opacity="1.000000" stroke="none" 
	d="
M198.556152,18.117191 
	C192.371078,18.166880 185.790039,18.220873 179.221176,17.963623 
	C173.730637,17.748602 169.059784,20.734829 163.831146,21.503746 
	C161.991714,21.774248 161.220764,23.380032 161.028503,25.559607 
	C161.217758,29.463875 158.316772,29.399502 156.206543,29.736994 
	C148.446213,30.978121 140.911652,33.046200 133.516785,35.620930 
	C118.428551,40.874313 104.681252,48.559460 92.345497,58.731789 
	C90.794937,60.010410 89.205215,61.202614 86.924988,62.124409 
	C84.494064,62.080448 82.528946,61.523438 80.497223,62.524185 
	C77.716789,63.893715 75.906509,63.051235 75.765755,59.371742 
	C79.253059,53.920292 84.292404,50.806946 88.845222,47.175461 
	C102.363510,36.392796 117.490074,28.541616 133.903625,23.296932 
	C147.182022,19.054041 160.854828,16.711525 174.845016,16.559563 
	C182.651672,16.474764 190.468582,16.260780 198.556152,18.117191 
z"/>
<path fill="#AC945A" opacity="1.000000" stroke="none" 
	d="
M202.668732,313.101562 
	C203.532593,309.226074 206.579697,307.281952 208.776550,304.389374 
	C208.929367,301.182831 211.274658,300.893585 213.321457,300.299438 
	C226.740799,296.403931 239.359146,290.694305 251.356247,283.564240 
	C254.778214,281.530518 257.948914,279.150085 261.342224,276.482605 
	C261.774628,276.110077 261.944427,275.963165 262.361633,275.603607 
	C262.770416,275.254852 262.931793,275.118805 263.330597,274.787415 
	C263.727325,274.471375 263.886566,274.350677 264.290405,274.067078 
	C264.693878,273.794220 264.852753,273.684235 265.246582,273.406738 
	C265.636322,273.122314 265.791168,273.005463 266.411255,272.513885 
	C267.039154,272.008575 267.201813,271.878021 267.901733,271.360901 
	C268.640045,270.854279 268.841156,270.734283 269.390991,270.503357 
	C269.990723,270.383728 270.241699,270.375000 270.861389,270.459351 
	C273.339661,271.548248 274.691376,270.057281 276.134094,269.002380 
	C277.574036,267.949585 278.879395,266.604584 281.243378,267.798492 
	C282.209839,268.586884 282.484436,269.303406 282.422668,270.543945 
	C282.363586,271.202179 282.324524,271.463776 282.213257,272.115540 
	C281.853271,272.689575 281.565460,272.873444 281.212524,272.791077 
	C280.882629,272.965485 280.598022,273.392975 280.186523,274.177460 
	C280.094177,274.768982 280.003937,274.932343 279.663635,275.060883 
	C278.876007,275.263245 278.521149,275.692627 278.199707,276.547577 
	C277.977417,276.750641 277.846924,277.005737 277.705505,277.028595 
	C277.109619,277.129944 276.713470,277.323181 276.242889,277.957977 
	C276.073425,278.555084 275.943817,278.787170 275.518005,279.026855 
	C274.956970,279.209595 274.628113,279.394348 274.170197,279.884674 
	C273.996124,280.112213 274.025635,280.017365 274.073029,280.032196 
	C273.422668,280.959747 272.511139,281.530701 271.251434,282.063263 
	C271.118011,282.368164 271.141846,282.108917 271.271423,282.121063 
	C270.694702,282.251587 270.535706,282.806610 270.164490,283.552002 
	C269.925201,283.720764 269.839142,283.917725 269.734009,283.895447 
	C269.145996,284.683502 268.217468,284.867371 267.250854,285.564880 
	C266.982910,285.755402 266.861542,286.010071 266.722656,286.034790 
	C266.133392,286.119995 265.741608,286.304810 265.244141,286.903900 
	C264.734406,287.464111 264.389008,287.734344 263.815674,288.004364 
	C263.106323,288.110931 262.695648,288.342926 262.242004,289.044128 
	C252.623703,296.675110 242.038071,301.972443 230.932602,306.304077 
	C230.018570,306.660583 229.030304,306.826843 227.707428,307.146790 
	C223.682724,309.229248 219.513092,309.719574 215.285675,311.250061 
	C214.578995,311.345917 214.244720,311.336151 213.661774,311.293640 
	C211.080490,311.697479 209.071625,313.329437 206.210800,313.184875 
	C205.172821,313.394104 204.487061,313.534576 203.450623,313.675507 
	C202.831985,313.560883 202.564011,313.445770 202.668732,313.101562 
z"/>
<path fill="#AB8B5F" opacity="1.000000" stroke="none" 
	d="
M75.663528,59.111969 
	C79.411278,63.195530 83.066048,58.652950 87.008163,59.203712 
	C88.685951,61.593327 86.872269,62.969116 85.536858,64.325218 
	C72.496887,77.567192 61.552631,92.280800 53.649265,109.175819 
	C52.905422,110.765930 52.228325,112.672325 49.555573,112.559097 
	C48.145676,108.797928 48.579052,104.657211 45.333031,101.437790 
	C48.546688,92.460869 53.776272,84.809807 59.386143,77.347527 
	C64.240089,70.890770 69.171806,64.541229 75.663528,59.111969 
z"/>
<path fill="#AD8B58" opacity="1.000000" stroke="none" 
	d="
M282.391785,271.216705 
	C281.755280,270.519653 281.474304,270.016937 281.096313,269.242126 
	C279.594116,267.189209 279.950012,265.564178 281.212128,263.817413 
	C282.277618,262.342773 282.867706,260.614807 282.444214,258.322021 
	C282.347351,255.939743 283.758911,254.688934 285.024902,252.962433 
	C285.544373,252.318329 285.835144,251.954071 286.322693,251.322250 
	C287.025482,250.366135 287.514648,249.664825 288.252045,248.768707 
	C288.683105,248.208237 288.921417,247.884430 289.318512,247.308975 
	C289.802185,246.553528 290.107300,246.037155 290.570557,245.254990 
	C291.044037,244.430161 291.389038,243.890137 291.971191,243.097076 
	C294.843018,239.107849 296.701996,234.897537 299.287598,231.143509 
	C300.312469,229.655502 300.838104,227.328079 303.763733,227.827469 
	C306.402344,226.956573 307.572662,224.628677 309.460663,223.082565 
	C311.197052,221.660629 312.922180,220.314133 315.013733,223.122360 
	C312.314392,226.063080 312.756592,230.079727 311.062714,233.283157 
	C306.104065,242.660965 300.453766,251.551117 293.632019,260.037079 
	C292.189453,260.521545 292.623260,261.547150 292.141693,262.460327 
	C290.408844,263.903778 288.951721,265.185699 287.300598,266.725891 
	C286.262604,268.045715 285.603973,269.282471 284.212036,270.255432 
	C284.110352,270.809143 284.017151,270.983093 283.672821,271.140198 
	C283.264618,271.255524 283.005951,271.333282 282.391785,271.216705 
z"/>
<path fill="#A48D57" opacity="1.000000" stroke="none" 
	d="
M46.536331,234.312103 
	C52.416580,236.501801 51.947639,243.040787 54.877045,247.854950 
	C51.249298,244.247787 49.153629,239.314102 46.536331,234.312103 
z"/>
<path fill="#83754D" opacity="1.000000" stroke="none" 
	d="
M215.201813,311.532013 
	C218.443115,308.997162 222.641083,308.574768 226.948044,307.274689 
	C223.956619,310.206573 219.341339,309.950500 215.201813,311.532013 
z"/>
<path fill="#83754D" opacity="1.000000" stroke="none" 
	d="
M153.629883,313.690796 
	C157.179199,313.019196 160.891159,313.968628 164.988739,315.095062 
	C161.418610,316.066742 157.767227,314.382690 153.629883,313.690796 
z"/>
<path fill="#83754D" opacity="1.000000" stroke="none" 
	d="
M202.632629,312.948608 
	C203.041428,312.872467 203.109924,313.271393 203.104950,313.473694 
	C199.671295,314.336212 196.242615,314.996429 192.411560,315.546753 
	C195.159470,313.554626 198.821030,313.837585 202.632629,312.948608 
z"/>
<path fill="#83754D" opacity="1.000000" stroke="none" 
	d="
M206.219055,313.364075 
	C207.895142,311.808228 210.310577,311.731476 213.030701,311.317444 
	C211.336349,312.619598 209.010056,313.208008 206.219055,313.364075 
z"/>
<path fill="#83754D" opacity="1.000000" stroke="none" 
	d="
M135.835114,309.452057 
	C137.705643,309.272797 139.691696,309.789246 141.832779,311.087402 
	C139.773926,312.063232 138.104385,310.210907 135.835114,309.452057 
z"/>
<path fill="#83754D" opacity="1.000000" stroke="none" 
	d="
M146.764954,312.470947 
	C147.870117,312.466553 149.173889,312.711670 150.814209,313.175964 
	C149.623566,313.986053 148.296890,313.332642 146.764954,312.470947 
z"/>
<path fill="#A48D59" opacity="1.000000" stroke="none" 
	d="
M284.429962,270.432129 
	C284.603210,269.271210 285.370178,268.163757 286.826111,267.175507 
	C287.208496,268.713806 285.829987,269.389618 284.429962,270.432129 
z"/>
<path fill="#A48D59" opacity="1.000000" stroke="none" 
	d="
M267.256592,285.685181 
	C267.415649,284.854675 268.123047,284.280396 269.351562,283.934570 
	C268.929352,284.453796 268.229797,285.034363 267.256592,285.685181 
z"/>
<path fill="#83754D" opacity="1.000000" stroke="none" 
	d="
M129.806854,307.483948 
	C130.602386,307.602722 131.589432,307.987152 132.798187,308.602509 
	C132.012726,308.472137 131.005539,308.110870 129.806854,307.483948 
z"/>
<path fill="#A48D59" opacity="1.000000" stroke="none" 
	d="
M271.448303,282.268402 
	C271.923065,281.680298 272.728119,280.992432 273.826782,280.175781 
	C274.025848,281.511475 272.772034,281.696350 271.448303,282.268402 
z"/>
<path fill="#83754D" opacity="1.000000" stroke="none" 
	d="
M292.172943,262.563599 
	C292.192627,261.919983 292.519287,261.218109 293.087524,260.343079 
	C293.046082,260.948364 292.763000,261.726837 292.172943,262.563599 
z"/>
<path fill="#A68E57" opacity="1.000000" stroke="none" 
	d="
M307.247833,92.610725 
	C306.958160,92.461258 306.595764,92.026360 306.104004,91.337624 
	C306.374847,91.497627 306.774963,91.911461 307.247833,92.610725 
z"/>
<path fill="#A48D59" opacity="1.000000" stroke="none" 
	d="
M278.254364,276.647156 
	C278.331421,276.303864 278.685455,275.857086 279.278961,275.247131 
	C279.189423,275.570557 278.860382,276.057098 278.254364,276.647156 
z"/>
<path fill="#A48D59" opacity="1.000000" stroke="none" 
	d="
M270.213409,283.674622 
	C270.262482,283.294495 270.599762,282.868225 271.169037,282.287598 
	C271.101227,282.631622 270.801422,283.130035 270.213409,283.674622 
z"/>
<path fill="#83754D" opacity="1.000000" stroke="none" 
	d="
M144.465210,311.771149 
	C144.614151,311.665039 145.034897,311.750519 145.744873,311.977600 
	C145.601746,312.067078 145.169388,312.014923 144.465210,311.771149 
z"/>
<path fill="#A48D59" opacity="1.000000" stroke="none" 
	d="
M265.398743,287.110077 
	C265.402924,286.928772 265.725983,286.663635 266.316437,286.229004 
	C266.295074,286.381744 266.006378,286.704010 265.398743,287.110077 
z"/>
<path fill="#A48D59" opacity="1.000000" stroke="none" 
	d="
M282.055908,271.393677 
	C282.284149,271.046753 282.532043,271.071167 283.151611,271.136658 
	C283.266510,271.532440 283.009766,271.887115 282.447052,272.373718 
	C282.119232,272.258759 282.097382,272.011871 282.055908,271.393677 
z"/>
<path fill="#83754D" opacity="1.000000" stroke="none" 
	d="
M133.274246,309.038452 
	C133.211868,308.897034 133.699768,308.916962 133.928131,309.005341 
	C134.156479,309.093719 133.770462,309.312439 133.770462,309.312439 
	C133.770462,309.312439 133.336624,309.179871 133.274246,309.038452 
z"/>
<path fill="#A48D59" opacity="1.000000" stroke="none" 
	d="
M280.449982,274.322540 
	C280.329803,274.103882 280.580139,273.660095 280.988953,272.870544 
	C281.038422,273.048981 280.929443,273.573212 280.449982,274.322540 
z"/>
<path fill="#A48D59" opacity="1.000000" stroke="none" 
	d="
M276.410217,278.153076 
	C276.412537,277.981506 276.724579,277.697327 277.300354,277.232300 
	C277.282684,277.381134 277.001343,277.710815 276.410217,278.153076 
z"/>
<path fill="#A48D59" opacity="1.000000" stroke="none" 
	d="
M274.279175,280.031311 
	C274.279694,279.869263 274.563263,279.626312 275.085632,279.237549 
	C275.070374,279.377991 274.816284,279.664215 274.279175,280.031311 
z"/>
<path fill="#A48D59" opacity="1.000000" stroke="none" 
	d="
M262.448303,289.252533 
	C262.439209,289.067780 262.750214,288.747498 263.324463,288.215698 
	C263.314636,288.375122 263.041534,288.746063 262.448303,289.252533 
z"/>
<path fill="#282729" opacity="1.000000" stroke="none" 
	d="
M293.082581,246.784424 
	C292.596130,247.315598 292.307251,247.657791 291.990723,248.229034 
	C291.874115,248.890808 291.686310,249.273224 291.112549,249.778610 
	C290.269684,250.622192 289.697632,251.284195 289.047485,252.201141 
	C288.874542,252.895233 288.678955,253.281754 288.085144,253.781662 
	C286.895630,254.994736 285.988342,256.033783 284.972107,257.349670 
	C281.790039,264.199890 277.180756,269.308044 270.278259,272.752045 
	C269.933990,272.946808 269.980713,272.986450 269.979858,272.955811 
	C269.778351,273.198273 269.553802,273.450226 269.102905,273.832397 
	C268.897369,273.981018 268.982300,273.983704 268.983582,273.941223 
	C268.781158,274.190338 268.549011,274.457184 268.058289,274.832733 
	C267.828094,274.966156 267.977295,274.961792 267.975067,274.887207 
	C267.797852,275.151062 267.565582,275.445129 267.027863,275.822693 
	C266.772064,275.944794 266.974426,275.917084 266.960480,275.815918 
	C266.681732,276.351624 266.098602,276.480072 265.314117,276.829468 
	C265.111816,277.048889 265.041534,277.032440 265.033356,277.067566 
	C264.845306,277.239075 264.665466,277.375397 264.249329,277.754059 
	C247.648453,290.247467 229.603638,298.976898 209.375488,304.028137 
	C206.221863,304.621216 203.431778,305.078430 200.320984,305.741821 
	C199.365707,306.579285 198.628998,306.881531 197.368225,306.439392 
	C194.903275,306.389709 192.797760,306.553925 190.325989,306.843140 
	C182.950195,308.099121 175.896347,307.263245 168.432190,307.231354 
	C151.581741,305.133667 135.597656,301.658539 120.547241,294.524048 
	C92.765640,281.354492 71.652397,261.101105 56.226822,234.259186 
	C55.602501,233.589325 55.511349,233.044983 55.149216,232.368774 
	C54.921188,232.218460 54.964172,232.096054 54.907383,232.064713 
	C54.647816,231.711090 54.436001,231.394882 54.133247,230.811798 
	C53.451298,229.194031 52.849781,227.850204 52.070992,226.238785 
	C51.637897,225.677948 51.403034,225.368790 51.119156,224.760681 
	C51.049152,224.477661 51.064953,224.199448 50.986572,224.084259 
	C50.639050,223.676437 50.397472,223.362457 50.108269,222.740997 
	C50.036713,222.452072 50.114750,222.213104 50.052193,222.104004 
	C45.964226,210.942352 42.284313,199.788757 40.582390,188.097595 
	C39.986267,184.002609 39.624439,179.873505 39.051094,175.362976 
	C37.960499,168.953888 38.711975,162.904190 38.758980,156.441528 
	C40.410587,141.265488 43.574753,126.927361 49.145725,112.787796 
	C58.025436,92.153244 70.593712,74.566467 87.223885,59.473808 
	C102.876694,46.295372 119.974365,36.449936 139.401886,30.762520 
	C146.269104,28.752136 153.324158,27.781837 160.630127,26.070253 
	C161.449478,25.937666 161.904236,25.944939 162.693787,25.882969 
	C163.180038,25.739088 163.331467,25.664454 163.721802,25.673794 
	C166.031433,25.643711 168.102158,25.529654 170.600433,25.292191 
	C175.107742,25.277941 179.163925,23.766327 183.643829,25.027884 
	C186.129074,25.269035 188.230408,25.473221 190.728363,25.633690 
	C192.838837,25.439474 194.554016,25.484091 196.635956,25.778111 
	C197.324020,26.085817 197.645538,26.170403 198.200073,26.159119 
	C199.711243,26.599422 201.074661,26.459219 202.724075,26.813538 
	C203.841080,27.288460 204.641174,27.514214 205.755386,27.720032 
	C206.503891,27.562244 206.948013,27.513994 207.689972,27.733301 
	C208.269974,28.065969 208.580719,28.154266 209.147629,28.120741 
	C210.087723,28.184250 210.738770,28.512657 211.736923,28.795116 
	C212.811615,29.285526 213.604492,29.557690 214.714630,29.819740 
	C215.206436,29.747707 215.380966,29.685787 215.779419,29.788216 
	C228.720169,34.376068 241.131577,39.401745 252.470840,46.857830 
	C267.928528,57.021992 280.845337,69.773849 292.081879,84.820107 
	C292.399506,85.254555 292.489319,85.421242 292.791443,85.776520 
	C293.003784,85.965126 292.980927,86.001961 293.002533,86.000381 
	C293.248260,86.242485 293.476654,86.482071 293.852661,86.920288 
	C293.996002,87.123016 294.009003,86.991219 293.943115,86.984673 
	C294.374878,87.365692 294.490692,87.933708 294.807617,88.707596 
	C296.128510,90.758873 297.240845,92.607849 298.590759,94.670609 
	C299.358826,95.285072 299.484894,95.881989 299.816040,96.702469 
	C300.028320,96.922539 300.001587,96.980865 300.032990,96.987396 
	C300.340057,97.303474 300.594849,97.629204 300.906433,98.273544 
	C301.089508,99.003288 301.191681,99.433197 301.488586,99.984741 
	C308.503723,114.201416 313.873962,128.731369 316.189484,144.345932 
	C320.262207,171.810577 317.154968,198.255554 305.794373,223.658981 
	C305.253082,224.869354 304.736755,226.090881 304.141022,227.663544 
	C300.810760,233.545456 297.548340,239.071091 294.180054,244.934937 
	C293.453674,245.500214 293.524048,246.142212 293.082581,246.784424 
z"/>
<path fill="#A6966A" opacity="1.000000" stroke="none" 
	d="
M168.372742,307.193604 
	C175.010986,306.970581 182.023010,306.921722 189.497375,306.920502 
	C182.919693,308.749268 175.836624,308.245789 168.372742,307.193604 
z"/>
<path fill="#AC945A" opacity="1.000000" stroke="none" 
	d="
M197.065552,306.486389 
	C197.754868,306.126312 198.500946,306.027161 199.623657,305.937988 
	C199.384872,307.452606 198.901138,309.431305 197.065552,306.486389 
z"/>
<path fill="#A48D57" opacity="1.000000" stroke="none" 
	d="
M55.028999,232.457123 
	C55.260883,232.632751 55.600574,233.047043 55.975807,233.729370 
	C55.719837,233.563522 55.428322,233.129654 55.028999,232.457123 
z"/>
<path fill="#A48D57" opacity="1.000000" stroke="none" 
	d="
M51.178211,224.734161 
	C51.299564,224.780258 51.549976,225.082855 51.847057,225.678314 
	C51.698238,225.644333 51.502754,225.317490 51.178211,224.734161 
z"/>
<path fill="#A48D57" opacity="1.000000" stroke="none" 
	d="
M50.171139,222.712128 
	C50.290512,222.759903 50.544315,223.067719 50.853149,223.672302 
	C50.707314,223.636765 50.506443,223.304459 50.171139,222.712128 
z"/>
<path fill="#A48D57" opacity="1.000000" stroke="none" 
	d="
M54.172600,230.795044 
	C54.281067,230.847198 54.509312,231.156555 54.794075,231.749634 
	C54.664520,231.706329 54.478451,231.379288 54.172600,230.795044 
z"/>
<path fill="#A68F59" opacity="1.000000" stroke="none" 
	d="
M183.662231,24.883566 
	C179.969803,25.144438 175.911865,25.224028 171.440948,25.236202 
	C175.048828,23.205528 179.166550,23.790249 183.662231,24.883566 
z"/>
<path fill="#A68F59" opacity="1.000000" stroke="none" 
	d="
M196.700699,25.841583 
	C195.316650,25.928005 193.630783,25.854780 191.534943,25.685764 
	C192.893951,24.989565 194.655090,24.838327 196.700699,25.841583 
z"/>
<path fill="#A68F59" opacity="1.000000" stroke="none" 
	d="
M202.686432,26.885376 
	C201.707092,26.909830 200.373169,26.756958 198.736176,26.333668 
	C199.732681,26.278183 201.032272,26.493114 202.686432,26.885376 
z"/>
<path fill="#A68E57" opacity="1.000000" stroke="none" 
	d="
M294.906616,88.651031 
	C294.675690,88.456947 294.335175,88.004013 293.935944,87.264603 
	C294.183807,87.449478 294.490417,87.920822 294.906616,88.651031 
z"/>
<path fill="#A68F59" opacity="1.000000" stroke="none" 
	d="
M207.802277,27.812168 
	C207.548340,27.903212 207.118561,27.895182 206.379150,27.793625 
	C206.588486,27.704430 207.107468,27.708761 207.802277,27.812168 
z"/>
<path fill="#A68E57" opacity="1.000000" stroke="none" 
	d="
M299.913330,96.650467 
	C299.666382,96.445084 299.304413,95.967628 298.885437,95.187279 
	C299.151672,95.382393 299.474976,95.880402 299.913330,96.650467 
z"/>
<path fill="#A68F59" opacity="1.000000" stroke="none" 
	d="
M211.704880,28.855625 
	C211.304794,28.881084 210.590820,28.748810 209.630890,28.340942 
	C210.053619,28.276197 210.722305,28.487043 211.704880,28.855625 
z"/>
<path fill="#A68F59" opacity="1.000000" stroke="none" 
	d="
M215.890259,29.895405 
	C216.003357,29.952566 215.505707,29.962313 215.268814,29.885971 
	C215.284393,29.741930 215.532791,29.751469 215.890259,29.895405 
z"/>
<path fill="#A68E57" opacity="1.000000" stroke="none" 
	d="
M292.897858,85.811127 
	C292.756927,85.856255 292.557159,85.690598 292.357086,85.278015 
	C292.483368,85.266655 292.644135,85.456406 292.897858,85.811127 
z"/>
<path fill="#A68E57" opacity="1.000000" stroke="none" 
	d="
M293.841034,86.929359 
	C293.719330,86.918617 293.442657,86.714218 293.095062,86.254303 
	C293.256134,86.234253 293.476776,86.479881 293.841034,86.929359 
z"/>
<path fill="#A68F59" opacity="1.000000" stroke="none" 
	d="
M163.844208,25.728348 
	C163.960709,25.757769 163.499252,25.862217 163.263916,25.837971 
	C163.251419,25.707359 163.484467,25.669094 163.844208,25.728348 
z"/>
<path fill="#A68E57" opacity="1.000000" stroke="none" 
	d="
M300.842621,98.304184 
	C300.727753,98.250793 300.468109,97.928223 300.136414,97.299782 
	C300.275574,97.340942 300.486725,97.687973 300.842621,98.304184 
z"/>
<path fill="#B29C6B" opacity="1.000000" stroke="none" 
	d="
M38.790405,156.381866 
	C38.985092,162.018616 39.006985,168.028336 38.987724,174.501999 
	C37.300751,168.923325 37.724163,162.843323 38.790405,156.381866 
z"/>
<path fill="#A48D59" opacity="1.000000" stroke="none" 
	d="
M270.322998,272.941895 
	C274.718353,267.962219 279.502716,262.977631 284.575134,257.809814 
	C284.877716,261.594421 282.352051,264.710938 281.140137,268.642487 
	C277.333435,269.678375 274.725159,273.129303 270.322998,272.941895 
z"/>
<path fill="#A48D59" opacity="1.000000" stroke="none" 
	d="
M265.371887,276.931335 
	C265.530579,276.649658 265.949341,276.250458 266.657349,275.782959 
	C266.508362,276.081085 266.070160,276.447479 265.371887,276.931335 
z"/>
<path fill="#A48D59" opacity="1.000000" stroke="none" 
	d="
M269.093689,273.821838 
	C269.090637,273.690399 269.283875,273.399780 269.728058,273.017181 
	C269.749359,273.171051 269.519684,273.416870 269.093689,273.821838 
z"/>
<path fill="#A48D59" opacity="1.000000" stroke="none" 
	d="
M268.036194,274.805206 
	C268.039307,274.673889 268.250519,274.381653 268.723297,273.994080 
	C268.738007,274.147278 268.491119,274.395752 268.036194,274.805206 
z"/>
<path fill="#A48D59" opacity="1.000000" stroke="none" 
	d="
M266.984497,275.769592 
	C266.982819,275.625580 267.193542,275.306366 267.688568,274.899872 
	C267.714233,275.073212 267.455597,275.333832 266.984497,275.769592 
z"/>
<path fill="#A48D59" opacity="1.000000" stroke="none" 
	d="
M264.198669,277.867523 
	C264.105347,277.676147 264.290436,277.423889 264.796692,277.171204 
	C264.835205,277.338501 264.621613,277.550476 264.198669,277.867523 
z"/>
<path fill="#A48D59" opacity="1.000000" stroke="none" 
	d="
M293.065430,246.784317 
	C293.142578,246.517944 293.400177,246.062500 293.866028,245.440109 
	C293.798096,245.713852 293.521973,246.154556 293.065430,246.784317 
z"/>
<path fill="#A48D59" opacity="1.000000" stroke="none" 
	d="
M288.014526,253.720734 
	C288.016541,253.584976 288.230164,253.214264 288.706604,252.649811 
	C288.721680,252.799301 288.473938,253.142532 288.014526,253.720734 
z"/>
<path fill="#A48D59" opacity="1.000000" stroke="none" 
	d="
M291.044739,249.723465 
	C291.041504,249.586884 291.241241,249.213577 291.702057,248.649170 
	C291.724640,248.800964 291.486206,249.143845 291.044739,249.723465 
z"/>
<path fill="#AE9159" opacity="1.000000" stroke="none" 
	d="
M212.123642,153.180786 
	C207.184753,148.653244 205.764099,148.582748 204.292786,152.750427 
	C204.081284,153.349533 204.678329,154.234085 204.993286,155.299744 
	C205.183075,155.999420 205.370560,156.335907 205.888763,156.791321 
	C210.370178,162.208725 212.671494,168.294907 213.835602,175.276276 
	C213.178635,177.709259 211.970917,178.652496 209.415588,177.712982 
	C208.476761,177.473328 207.983429,177.261887 207.283325,176.660995 
	C206.625549,175.789963 206.250244,175.180588 205.609726,174.358215 
	C204.934433,173.652008 204.438873,173.241241 203.528107,172.838593 
	C199.989426,171.992584 196.670700,171.385818 196.462891,166.747009 
	C196.367661,164.207336 199.331467,163.916000 199.257629,161.529037 
	C199.059189,160.872696 198.899414,160.510605 198.531128,159.902466 
	C197.661346,158.760361 196.860718,157.999359 195.622284,157.181458 
	C194.239639,156.139587 194.083588,154.834930 193.608307,153.285034 
	C193.544434,152.383621 193.559677,151.867111 193.694901,150.970673 
	C194.268127,149.340286 194.936356,148.254349 196.633087,147.659103 
	C198.626709,146.842331 199.989090,145.797699 201.077133,144.095566 
	C201.204468,143.929794 201.301819,143.605545 201.118439,143.545227 
	C200.446396,143.222839 199.932785,143.024826 199.022232,142.808350 
	C189.410233,142.063889 180.311249,139.706070 170.952103,140.470535 
	C169.804581,140.564270 168.620132,140.503952 167.279022,139.498672 
	C166.416031,137.998703 166.041946,136.827347 166.845703,135.143036 
	C168.785126,132.900665 171.049881,133.647095 173.115143,133.515533 
	C179.322739,133.120102 185.620331,134.378922 192.179367,132.143951 
	C186.772369,127.843948 167.976395,128.586060 162.978302,133.005661 
	C162.508072,133.421463 162.259445,134.107513 161.811707,135.033447 
	C161.500458,135.862427 161.218277,136.272415 160.490997,136.841217 
	C157.931046,137.393982 155.960358,138.177490 154.752182,140.254486 
	C153.271362,142.800186 151.176895,143.354675 148.186127,141.928955 
	C147.467056,141.195480 147.185562,140.683960 146.842743,139.718719 
	C146.653290,139.026840 146.608353,138.743027 146.535583,138.030396 
	C146.368790,136.704758 146.571091,135.905426 147.539642,134.984299 
	C148.173203,134.701248 148.454208,134.658188 149.153931,134.695877 
	C150.799103,134.541626 152.183319,135.045792 153.624374,133.701019 
	C154.167709,133.051651 154.322311,132.696106 154.711472,132.162994 
	C155.205154,131.762970 155.449707,131.525620 155.816284,131.056122 
	C157.518097,128.061569 160.274689,126.509529 162.772873,124.217377 
	C164.072037,122.455322 162.185440,119.930641 165.090790,118.720322 
	C167.568375,117.386116 169.534531,118.481407 171.904404,119.035988 
	C173.202774,119.386307 174.154251,119.575722 175.438019,119.879738 
	C181.774948,120.858612 187.515076,120.522774 192.629333,116.253647 
	C192.830017,115.843292 192.892853,115.677383 193.007355,115.261765 
	C193.098236,114.678772 193.087234,114.347168 192.932861,113.777588 
	C192.675354,113.210312 192.486496,112.897186 192.076935,112.363724 
	C189.889984,110.071518 187.442108,108.974976 184.269958,108.614670 
	C183.181641,108.539223 182.448990,108.500542 181.327301,108.475235 
	C179.856445,108.434486 178.776260,108.372345 177.281937,108.082077 
	C174.985580,107.213112 173.925964,105.774841 174.268341,103.809982 
	C174.626617,101.754036 176.641815,102.076851 178.126038,101.683525 
	C179.122345,101.419479 180.135803,101.313438 181.573395,101.081894 
	C183.068710,101.044083 184.136673,101.086197 185.592102,101.236099 
	C187.370621,102.333015 188.983124,102.517197 190.938217,102.758751 
	C192.972855,104.494705 194.176178,103.039017 195.441498,102.165451 
	C198.495453,100.057014 201.416412,97.704018 205.611084,97.096809 
	C207.168259,97.975883 206.543152,99.115402 206.214935,100.530731 
	C204.821899,101.517563 203.692993,102.240631 202.478745,102.766777 
	C198.747543,104.383514 196.803650,106.003067 199.950439,110.415474 
	C202.154892,113.506554 202.482834,117.547142 198.928970,120.821884 
	C196.610641,122.958092 196.724915,125.062279 199.566666,127.141106 
	C201.674850,128.683304 203.405151,130.827972 205.028397,132.918152 
	C206.183472,134.405457 207.423645,135.133850 209.626373,134.959900 
	C211.157150,135.300461 211.969864,136.185654 213.272461,136.932129 
	C214.334396,137.993729 214.827057,139.080368 215.911713,140.149918 
	C216.554596,141.923294 215.621994,143.174393 215.399918,144.883270 
	C215.043442,146.815994 215.707397,147.726852 216.910767,148.930054 
	C221.684753,153.703445 226.842224,158.013458 231.994186,162.345886 
	C233.340775,163.478256 235.103516,164.450333 234.501984,167.118073 
	C233.835556,170.453064 231.761429,169.853714 229.386307,169.226913 
	C223.875183,165.504547 219.529129,161.122131 215.121216,156.354630 
	C214.765259,155.797058 214.531219,155.556107 214.078049,155.182404 
	C213.554077,154.958099 213.317795,154.774216 213.074036,154.272766 
	C212.775299,153.806503 212.550583,153.566879 212.123642,153.180786 
z"/>
<path fill="#AA9159" opacity="1.000000" stroke="none" 
	d="
M141.272308,194.297668 
	C138.182205,191.620148 140.234344,189.058777 141.611221,187.594910 
	C144.866974,184.133484 145.270721,180.184311 145.144104,175.453552 
	C146.253998,173.620010 147.517761,172.790558 149.752167,173.542084 
	C153.579071,179.911789 159.094589,181.081802 165.569321,180.594971 
	C168.581833,180.368454 171.822998,179.920364 174.869934,182.239868 
	C175.437119,183.489288 175.768631,184.357239 175.512177,185.759918 
	C174.746597,187.940079 173.282730,188.346832 171.262970,188.638336 
	C170.302994,188.852539 169.766571,188.971313 168.859222,189.165298 
	C165.895370,189.625778 163.279037,189.383759 160.677338,189.528168 
	C159.039169,189.619110 157.208145,189.652908 156.574066,191.524460 
	C155.870453,193.601227 157.111984,194.901764 159.241333,195.914185 
	C164.776093,197.132965 170.145966,196.829346 175.263672,198.475555 
	C177.523193,199.202377 178.808884,200.101517 178.188324,203.017365 
	C177.443268,204.625366 176.322174,204.946548 174.744278,205.252502 
	C172.509506,205.488358 170.678482,205.447144 168.482422,205.486237 
	C166.067215,205.733917 163.195480,205.046371 163.026184,208.110168 
	C162.866776,210.994461 165.177048,212.792664 167.777878,213.059265 
	C175.731033,213.874512 183.728500,213.828613 191.691910,213.076752 
	C193.979385,212.860809 195.456421,211.135361 196.655624,209.225082 
	C197.802841,207.397614 198.900223,205.424377 201.941376,205.556732 
	C206.072754,206.320831 204.774918,208.942291 204.223633,211.606445 
	C204.005341,212.008774 203.998779,212.000000 204.003632,212.000854 
	C203.715454,212.265457 203.458939,212.561218 203.153244,213.168076 
	C199.416687,219.987915 195.029831,225.953979 188.900574,230.373749 
	C184.225235,233.745087 179.139542,235.189056 173.283783,232.060974 
	C172.705933,231.675156 172.463531,231.475433 172.022583,231.160049 
	C171.806519,231.065659 171.976379,231.059128 171.979584,231.144058 
	C171.660782,230.635483 171.076828,230.513611 170.274261,230.190613 
	C164.370087,226.262604 160.802307,220.650925 156.742950,215.045441 
	C153.759109,214.357956 152.385925,212.336349 151.266373,210.072403 
	C149.586670,206.675690 148.321396,203.114594 147.048370,199.549011 
	C146.494675,197.998215 146.539673,195.796967 143.748566,195.523407 
	C142.614655,195.499481 141.972488,195.206192 141.272308,194.297668 
z"/>
<path fill="#B09057" opacity="1.000000" stroke="none" 
	d="
M148.454315,139.606750 
	C151.006165,141.272186 152.440842,139.823181 154.014465,138.524368 
	C155.405289,137.376465 156.957672,136.424286 158.717102,135.198395 
	C161.759094,133.510406 164.564713,132.735382 167.755432,134.959534 
	C167.991730,136.342667 167.991028,137.283737 167.988571,138.577698 
	C167.040588,142.368149 163.590302,141.704437 161.109619,143.221268 
	C159.266968,145.643768 160.885391,147.048859 162.293030,148.884583 
	C163.178528,151.199966 164.296753,153.131363 163.056854,155.730865 
	C162.064728,157.634186 160.971176,158.928055 158.883194,159.671997 
	C158.181122,159.660980 157.904724,159.601471 157.221039,159.436249 
	C155.336166,158.796432 154.757675,157.617157 154.548157,155.770203 
	C154.557144,155.099380 154.566101,154.831467 154.756165,154.204575 
	C154.937256,153.845581 154.947296,153.413223 154.997543,153.202911 
	C155.154114,152.804291 155.260452,152.615997 155.112076,152.226883 
	C154.857346,152.026062 154.965759,152.004425 154.976547,152.058640 
	C154.850143,151.937271 154.712967,151.761673 154.378967,151.315948 
	C154.182159,151.045792 153.986374,150.823822 153.977570,150.676086 
	C153.509308,149.166534 152.458496,149.477570 151.238525,149.850006 
	C150.922211,150.395752 150.724182,150.653976 150.186249,150.909195 
	C149.413925,151.418869 148.838043,151.807449 148.187180,152.625366 
	C147.961304,152.886612 147.957214,152.962357 147.919342,152.960236 
	C147.527420,153.507278 146.868713,153.479462 146.212067,154.003296 
	C146.053482,154.250687 145.965546,154.106613 146.037567,154.062622 
	C145.819321,154.214325 145.553223,154.438400 145.173004,154.915161 
	C145.031006,155.135132 145.386627,155.174973 145.366943,155.352814 
	C144.308807,155.906052 143.282272,156.122665 142.091721,154.993652 
	C141.771393,154.435043 141.692474,154.187866 141.568115,153.560364 
	C141.499619,152.931320 141.476578,152.682602 141.539429,151.727417 
	C141.736694,150.826111 141.848068,150.631287 142.309906,149.934937 
	C142.874512,149.186371 143.093124,148.943405 143.406952,148.643143 
	C140.648453,150.936676 137.070374,151.788849 133.797379,153.264206 
	C127.647285,156.036453 122.466682,160.088074 118.124786,165.195633 
	C117.006157,166.511536 115.473640,167.835526 116.286377,170.182877 
	C116.639778,170.517899 116.797020,170.641586 117.199066,170.963684 
	C117.596123,171.318558 117.748367,171.475021 118.153381,171.854950 
	C119.727097,173.114258 121.352180,173.997696 120.216576,176.437134 
	C118.707069,177.770096 117.263527,178.467545 115.289314,178.774658 
	C113.514496,178.240097 112.014648,178.654251 110.256798,178.231232 
	C105.465927,174.419601 104.745949,171.421188 107.697563,166.661377 
	C109.062485,164.460281 111.041328,162.639877 112.913086,160.359192 
	C113.174255,159.924088 113.264175,159.776657 113.121803,159.189301 
	C112.718361,158.715897 112.547203,158.682419 112.162140,158.799530 
	C105.660973,163.172226 99.479385,167.581284 91.878593,170.091568 
	C90.861534,170.222839 90.230469,170.504776 89.281044,170.798767 
	C89.013199,171.010025 89.002136,171.002441 89.003532,171.007614 
	C87.973488,171.882721 86.705536,171.306076 85.286453,171.782562 
	C83.078835,172.468765 81.201645,172.387650 79.185104,171.310455 
	C78.742867,170.752808 78.465317,170.491180 77.886597,170.169861 
	C75.996956,169.014923 75.648445,167.465775 76.027588,165.322571 
	C76.377472,164.663712 76.612892,164.343033 76.899727,163.719315 
	C77.115112,163.015045 77.262421,162.601517 77.602051,162.070770 
	C78.110603,161.782501 78.401108,161.575378 78.832230,161.121170 
	C78.998596,160.910202 78.981438,161.014114 78.929474,161.005554 
	C79.172714,160.795853 79.442505,160.565018 79.839035,160.084915 
	C79.991135,159.865295 80.010292,159.977219 79.954330,159.986786 
	C80.183952,159.789413 80.447861,159.557785 80.840515,159.084534 
	C80.990952,158.867630 81.014809,158.970612 80.963318,158.982513 
	C81.190956,158.785416 81.450760,158.554642 81.848068,158.093353 
	C82.004890,157.884598 81.875130,157.943481 81.845718,157.878586 
	C83.153923,157.320099 84.495262,156.703049 86.001205,158.255737 
	C86.656044,160.156387 86.667473,161.702133 86.016251,163.484741 
	C92.464455,162.800522 97.836273,159.915817 102.513596,155.380768 
	C102.271423,154.779312 102.063614,154.645264 101.562965,154.601257 
	C101.144295,154.652283 100.970879,154.686798 100.523918,154.799652 
	C100.059761,154.941360 99.869148,155.004745 99.385216,155.178421 
	C98.673759,155.447250 98.258965,155.614136 97.512451,155.941895 
	C95.730408,156.741226 94.343201,157.582199 92.252121,157.366150 
	C90.074127,156.017639 88.033493,154.880646 90.624535,152.058167 
	C91.332062,151.469666 91.737587,151.215103 92.389397,150.940567 
	C92.995522,150.820084 93.315704,150.645172 93.803726,150.216507 
	C94.005951,150.027283 94.006104,149.986938 94.020416,150.001251 
	C94.435646,149.542343 95.038101,149.516754 95.775948,149.130859 
	C96.320091,148.645081 96.654488,148.354462 97.211502,148.025543 
	C97.867386,147.890640 98.253242,147.698746 98.807800,147.164246 
	C99.023949,146.917007 98.968918,146.976746 98.939072,146.949203 
	C100.871712,145.942078 103.191711,146.155869 105.474152,145.045151 
	C106.059608,145.070984 106.290596,145.112762 106.834442,145.308960 
	C107.488350,145.768921 107.823051,146.081284 108.404045,146.622009 
	C109.032692,147.103287 109.450554,147.251053 110.242638,147.257904 
	C111.275497,147.078476 111.970451,146.999664 113.033539,147.203262 
	C118.586830,148.816284 123.393898,147.857147 128.284927,145.654419 
	C133.283737,143.403168 138.116913,140.627594 143.648804,139.658478 
	C145.148331,139.395767 146.561691,138.476074 148.454315,139.606750 
z"/>
<path fill="#A9905D" opacity="1.000000" stroke="none" 
	d="
M204.244812,211.762939 
	C203.889618,210.098282 204.152267,208.009735 201.394974,207.088364 
	C194.667511,205.806335 188.088440,207.234818 181.729080,205.568710 
	C180.162094,205.158173 178.346680,205.464996 177.119812,203.469879 
	C176.378250,199.973434 173.945969,200.113037 171.592026,200.000931 
	C166.650467,199.765564 161.669647,200.576447 156.380997,199.295380 
	C157.120590,195.878387 160.009094,196.626190 162.325638,196.586090 
	C172.623322,196.407761 182.924271,196.536911 193.223938,196.498642 
	C195.215576,196.491241 197.229416,196.545349 199.119644,195.766388 
	C200.575928,195.166245 201.802826,194.256058 201.677567,192.487152 
	C201.547729,190.653519 200.105408,189.990402 198.571213,189.794022 
	C193.610565,189.159088 188.610092,189.737747 183.641571,189.446365 
	C180.452011,189.259293 176.938446,190.454865 174.103516,187.265167 
	C173.987427,185.896637 173.995758,184.917191 174.007889,183.448029 
	C174.971695,180.259460 177.382828,180.673065 179.418869,180.597626 
	C185.008301,180.390549 190.610474,180.363266 196.195999,180.558197 
	C200.900940,180.722382 204.947281,179.592010 208.650787,176.053406 
	C210.438583,176.312576 211.787613,176.475220 213.464508,175.800537 
	C213.770584,180.166061 214.536484,184.258499 217.658676,187.873077 
	C219.126404,189.572296 220.487518,192.152084 217.605118,194.704910 
	C216.616959,195.500595 216.022598,195.380447 215.391479,194.370239 
	C214.475784,192.684464 214.346924,190.891464 212.351273,189.860229 
	C210.872147,197.617126 208.392075,204.840210 204.244812,211.762939 
z"/>
<path fill="#A58A56" opacity="1.000000" stroke="none" 
	d="
M211.273926,139.770569 
	C209.368500,138.837250 209.087540,137.345840 209.888794,135.301636 
	C226.239166,131.922516 241.376923,134.722565 255.423920,143.457245 
	C261.632141,147.317627 267.903748,151.076324 274.099548,154.956268 
	C275.921722,156.097366 277.714905,157.352905 279.288483,158.807846 
	C282.039520,161.351410 284.722992,164.326950 283.038147,168.343658 
	C281.351929,172.363556 277.536957,172.659531 273.350037,172.023773 
	C272.251770,170.852493 271.664124,169.740860 272.393494,168.045105 
	C274.763458,164.624802 272.688477,162.778320 270.485962,161.178253 
	C266.057800,157.961365 260.945312,155.884521 256.108704,152.680740 
	C255.034286,150.965530 253.828720,150.001801 251.869110,149.430450 
	C243.036514,144.557693 234.035812,141.252319 224.271576,140.566681 
	C220.046585,140.269989 215.842926,139.735947 211.273926,139.770569 
z"/>
<path fill="#A38B58" opacity="1.000000" stroke="none" 
	d="
M181.656708,100.885262 
	C180.829407,102.566444 179.002502,102.653542 177.337433,103.224411 
	C175.176849,103.965195 176.529617,104.724747 177.798767,105.458405 
	C177.996689,106.437622 177.760513,107.441795 176.987091,107.650620 
	C172.045517,108.984840 168.142776,112.311172 163.216003,114.449692 
	C161.343185,114.366692 159.971893,114.104019 158.948730,112.330002 
	C158.668823,109.339355 162.812683,107.593925 161.296661,105.540695 
	C159.080048,102.538643 155.325989,100.280823 151.561127,100.175812 
	C146.561111,100.036346 143.252121,97.292000 139.603714,94.730606 
	C137.029480,92.923340 136.290100,90.272720 135.960724,87.428337 
	C135.791061,85.963165 135.621536,84.272667 137.419144,83.582512 
	C139.258408,82.876366 141.039734,83.675095 141.615128,85.284683 
	C144.486450,93.317047 151.664261,95.082565 158.316559,98.591621 
	C164.426376,101.814529 169.574524,102.871140 175.866241,100.957954 
	C177.545624,100.447273 179.489960,100.807922 181.656708,100.885262 
z"/>
<path fill="#A9925B" opacity="1.000000" stroke="none" 
	d="
M120.298950,176.618515 
	C119.418472,175.136124 118.283058,174.266678 116.288544,174.019562 
	C114.825111,171.970123 116.173813,170.968979 117.542717,169.920761 
	C124.493622,164.598358 131.483490,159.323746 137.877777,153.317108 
	C139.098740,152.170181 140.404526,151.061462 142.500153,152.457443 
	C143.409531,153.515182 144.070328,154.286713 145.039185,155.294449 
	C138.120804,163.725647 129.607635,170.403671 120.298950,176.618515 
z"/>
<path fill="#9F8852" opacity="1.000000" stroke="none" 
	d="
M274.041870,167.728729 
	C273.761047,169.190567 273.512756,170.252518 273.142029,171.619156 
	C265.637299,170.484360 259.329987,166.724945 253.112396,162.749527 
	C251.326981,161.607971 249.438080,160.628296 246.863754,159.614761 
	C245.683380,159.291290 245.308044,158.864029 244.874298,157.963287 
	C244.646774,156.007507 245.268509,154.769974 246.751694,153.547058 
	C249.388153,153.025208 251.309708,153.997574 253.268539,154.903778 
	C259.134613,157.617554 264.632812,161.057831 270.591553,163.598068 
	C272.199615,164.283569 274.090668,164.994812 274.041870,167.728729 
z"/>
<path fill="#A08B58" opacity="1.000000" stroke="none" 
	d="
M206.293243,100.787796 
	C205.990189,99.877251 205.990540,98.869934 205.986084,97.484894 
	C211.100342,94.586342 215.992874,91.887299 217.907700,85.883163 
	C218.510452,83.993179 220.174698,82.807762 222.224121,83.428093 
	C224.556213,84.133987 224.161224,86.268745 223.894485,88.051315 
	C223.079224,93.499603 215.388031,99.875137 209.578110,99.922966 
	C208.476517,99.932030 207.295227,99.252861 206.293243,100.787796 
z"/>
<path fill="#A58B55" opacity="1.000000" stroke="none" 
	d="
M215.257935,194.466217 
	C215.809814,194.296768 216.355133,194.555023 217.106689,194.902618 
	C218.405792,195.426147 219.716232,195.927765 219.646149,197.243118 
	C219.217484,205.287476 218.328644,213.218048 212.104706,219.702393 
	C211.567505,220.217361 211.285278,220.365997 210.713242,220.153900 
	C209.332367,218.231323 210.147369,216.635803 210.682175,214.884888 
	C212.682236,208.336761 214.815598,201.804688 215.257935,194.466217 
z"/>
<path fill="#2E2F2E" opacity="1.000000" stroke="none" 
	d="
M143.484253,194.347137 
	C144.700745,192.679062 144.807739,190.830841 146.717834,189.666656 
	C148.602097,198.447906 152.104126,206.424393 156.345123,214.490448 
	C154.254013,214.860046 152.028503,215.791656 149.374481,215.094009 
	C147.706741,215.567337 146.670319,214.977432 146.167526,213.869232 
	C143.710678,208.454163 142.053329,202.830063 142.089645,196.804443 
	C142.095306,195.865234 142.899170,195.436096 143.484253,194.347137 
z"/>
<path fill="#A9905B" opacity="1.000000" stroke="none" 
	d="
M248.028290,162.729309 
	C249.119614,163.689728 249.969696,164.461624 250.654999,165.359299 
	C253.207520,168.702805 254.668640,172.425674 251.980515,176.190979 
	C249.186264,180.104965 245.248428,179.485687 241.111160,177.521149 
	C240.293045,176.060349 239.796326,174.858719 240.395630,173.178436 
	C244.129105,170.025024 243.786743,167.390411 240.592636,164.364197 
	C238.959854,162.817230 236.457214,161.013962 238.851562,157.811386 
	C240.656235,156.858276 242.164856,157.663239 244.038605,157.644714 
	C244.849365,157.939178 245.263580,158.201279 245.905136,158.758728 
	C246.841110,160.131836 245.988632,161.918167 248.028290,162.729309 
z"/>
<path fill="#AB8F58" opacity="1.000000" stroke="none" 
	d="
M143.437241,193.994446 
	C144.412491,201.031570 146.131546,207.815353 148.789230,214.714294 
	C149.115799,215.628937 149.197495,216.266556 149.310120,217.224533 
	C149.653854,219.558350 148.433167,219.720612 146.529877,219.249573 
	C141.746384,211.438705 137.847885,203.816788 141.013367,194.339600 
	C141.751923,193.983932 142.426025,193.988647 143.437241,193.994446 
z"/>
<path fill="#A28A55" opacity="1.000000" stroke="none" 
	d="
M154.756836,154.762726 
	C155.608826,155.793365 156.207626,156.604752 156.900391,157.709244 
	C157.163940,158.182770 157.333496,158.363190 157.739014,158.830215 
	C159.571747,161.887711 157.076111,163.626434 156.210556,166.152832 
	C155.930878,167.954926 154.438278,168.891052 154.531982,170.836609 
	C153.761078,172.772888 153.346420,174.589249 150.996399,175.157898 
	C149.119110,175.092926 147.619980,175.055267 145.671539,175.017639 
	C146.046082,167.668839 149.739471,161.526031 153.741547,155.199936 
	C154.178085,154.849152 154.340866,154.696320 154.756836,154.762726 
z"/>
<path fill="#A38B56" opacity="1.000000" stroke="none" 
	d="
M146.221283,219.380646 
	C147.008392,218.628036 147.887146,218.299011 149.053467,217.757431 
	C150.164856,222.600281 150.997635,227.654236 151.808945,232.711624 
	C152.253845,235.484863 151.929367,237.852478 148.377426,237.936203 
	C145.022354,238.015289 144.735519,235.705231 144.973557,233.167419 
	C145.391556,228.710342 145.863571,224.258331 146.221283,219.380646 
z"/>
<path fill="#A68F59" opacity="1.000000" stroke="none" 
	d="
M210.146851,220.289398 
	C210.860367,219.970825 211.201675,219.966858 211.648560,219.925049 
	C215.478973,224.652908 213.715851,230.354507 214.210876,235.623489 
	C214.399612,237.632339 211.917206,238.261230 209.947479,237.822937 
	C208.138077,237.420319 206.661072,236.088165 207.389908,234.252167 
	C209.145630,229.829361 208.350571,225.033783 210.146851,220.289398 
z"/>
<path fill="#AC915C" opacity="1.000000" stroke="none" 
	d="
M106.634338,147.362549 
	C104.059456,147.155777 101.839500,147.782532 99.266830,147.004456 
	C104.380531,142.435883 110.860344,139.841812 117.643410,137.084747 
	C119.636841,137.507553 120.506203,138.547440 120.454506,140.728470 
	C117.573273,146.686264 112.152550,146.878387 106.634338,147.362549 
z"/>
<path fill="#AA8F59" opacity="1.000000" stroke="none" 
	d="
M148.277710,134.948120 
	C148.049530,135.855484 148.032349,136.545349 148.010223,137.580215 
	C147.755020,138.126053 147.504745,138.326859 146.831421,138.751343 
	C140.666885,140.234955 134.927307,141.686462 128.793365,138.763824 
	C127.899521,137.393448 127.892281,136.399597 128.633148,134.932358 
	C133.270599,133.666153 137.710754,134.063400 142.601227,134.166901 
	C143.798859,134.594376 144.582031,134.486359 145.641418,134.402985 
	C146.381317,134.321945 146.836182,134.305161 147.625824,134.360764 
	C148.136658,134.532318 148.312683,134.631470 148.277710,134.948120 
z"/>
<path fill="#A38B56" opacity="1.000000" stroke="none" 
	d="
M242.211975,172.554443 
	C241.728821,174.129578 241.435410,175.342331 240.998962,176.902802 
	C236.499557,175.475555 233.135971,172.206177 229.170929,169.303864 
	C230.593231,168.901459 232.174820,168.784424 232.879517,166.602600 
	C236.608231,165.037857 240.303711,167.351776 242.211975,172.554443 
z"/>
<path fill="#AA8F59" opacity="1.000000" stroke="none" 
	d="
M158.603943,112.263123 
	C160.055527,112.296867 161.336655,112.658356 162.948883,113.247772 
	C165.507950,114.624458 167.513458,115.921700 166.805771,119.284790 
	C165.182068,120.528587 164.265121,121.936539 163.212799,123.695084 
	C160.577484,120.555038 156.881744,117.626961 158.603943,112.263123 
z"/>
<path fill="#AC915C" opacity="1.000000" stroke="none" 
	d="
M90.585175,151.823456 
	C90.531364,153.341614 90.830620,154.586884 92.991203,155.069519 
	C92.647293,159.265244 90.633453,160.840820 85.474388,160.723633 
	C84.612854,159.270508 83.776054,158.429565 82.170441,157.928986 
	C84.116539,155.121933 87.239464,153.607132 90.585175,151.823456 
z"/>
<path fill="#AA8F59" opacity="1.000000" stroke="none" 
	d="
M119.325958,141.442245 
	C118.735794,139.955032 118.452408,138.834915 118.089409,137.377472 
	C119.342712,136.664154 120.675629,136.288132 122.361374,135.910248 
	C123.986000,135.377625 125.443893,135.046387 126.301651,136.279022 
	C127.678101,138.257019 125.630379,139.534607 124.543053,141.372818 
	C122.675339,142.217285 121.180656,142.897003 119.325958,141.442245 
z"/>
<path fill="#AC915C" opacity="1.000000" stroke="none" 
	d="
M123.122864,140.324219 
	C123.368446,138.649292 126.877235,137.580811 122.995667,135.957626 
	C124.283440,134.641083 126.291328,135.005020 128.460846,134.468384 
	C129.033463,135.491226 129.203094,136.517181 129.480591,138.051727 
	C129.592468,138.808670 129.596497,139.057007 129.476730,139.657990 
	C129.069397,140.441803 128.697510,140.775024 127.892914,141.187775 
	C125.965981,142.108551 124.473129,142.288773 123.122864,140.324219 
z"/>
<path fill="#B3985D" opacity="1.000000" stroke="none" 
	d="
M248.213394,162.564056 
	C246.128769,163.593842 244.974518,163.158905 245.905838,160.271210 
	C246.191910,159.811172 246.371475,159.626266 246.769638,159.760254 
	C246.988235,160.079178 247.008392,159.995636 246.966614,159.985580 
	C247.310425,160.739700 247.696014,161.503876 248.213394,162.564056 
z"/>
<path fill="#A38B58" opacity="1.000000" stroke="none" 
	d="
M190.981094,102.684372 
	C189.563126,102.964211 187.841599,103.153229 186.208542,101.603470 
	C187.554306,101.719589 189.129059,102.095291 190.981094,102.684372 
z"/>
<path fill="#47432D" opacity="1.000000" stroke="none" 
	d="
M112.151031,159.123016 
	C112.707199,158.296661 113.466171,157.643204 114.516373,156.891006 
	C115.125259,156.740509 115.442932,156.688751 115.666183,157.110458 
	C114.917603,158.321793 114.263435,159.059662 113.346802,159.934509 
	C112.840836,159.812973 112.597328,159.554459 112.151031,159.123016 
z"/>
<path fill="#A9925B" opacity="1.000000" stroke="none" 
	d="
M110.236069,178.266174 
	C111.390465,178.186981 112.830849,178.346634 114.606400,178.639130 
	C113.442642,179.109543 111.965302,179.089462 110.236069,178.266174 
z"/>
<path fill="#AC915C" opacity="1.000000" stroke="none" 
	d="
M85.352509,172.032623 
	C86.100021,171.674011 87.202713,171.356369 88.655167,171.025757 
	C88.091660,171.943924 86.910782,172.043274 85.352509,172.032623 
z"/>
<path fill="#A08859" opacity="1.000000" stroke="none" 
	d="
M145.574921,134.251129 
	C145.121338,134.380997 144.316208,134.423248 143.286423,134.352280 
	C143.782303,134.213882 144.502853,134.188690 145.574921,134.251129 
z"/>
<path fill="#AA8F59" opacity="1.000000" stroke="none" 
	d="
M151.399963,149.990463 
	C151.879776,149.504974 152.733032,149.379913 153.768295,150.320892 
	C153.240051,150.326340 152.511337,150.124329 151.399963,149.990463 
z"/>
<path fill="#A9925B" opacity="1.000000" stroke="none" 
	d="
M148.218109,152.772308 
	C148.454803,152.336044 148.948318,151.785461 149.695557,151.110016 
	C149.457825,151.542786 148.966370,152.100403 148.218109,152.772308 
z"/>
<path fill="#AC915C" opacity="1.000000" stroke="none" 
	d="
M89.356476,170.990738 
	C89.630280,170.751862 90.247353,170.493698 91.196823,170.160400 
	C90.919388,170.380676 90.309570,170.676056 89.356476,170.990738 
z"/>
<path fill="#AC915C" opacity="1.000000" stroke="none" 
	d="
M95.702988,148.986343 
	C95.510399,149.229782 95.035110,149.523895 94.297279,149.916779 
	C94.496582,149.689377 94.958427,149.363190 95.702988,148.986343 
z"/>
<path fill="#A9925B" opacity="1.000000" stroke="none" 
	d="
M146.354462,154.233337 
	C146.496109,153.905243 146.938721,153.559814 147.631409,153.086258 
	C147.472794,153.377426 147.064133,153.796707 146.354462,154.233337 
z"/>
<path fill="#A38B58" opacity="1.000000" stroke="none" 
	d="
M170.228653,230.227707 
	C170.558121,230.266251 171.056519,230.550415 171.768829,231.031799 
	C171.454376,230.977097 170.925964,230.725220 170.228653,230.227707 
z"/>
<path fill="#A38B58" opacity="1.000000" stroke="none" 
	d="
M171.916122,231.296585 
	C172.082581,231.212906 172.346924,231.378815 172.782715,231.708481 
	C172.652481,231.744904 172.339111,231.636215 171.916122,231.296585 
z"/>
<path fill="#A9925B" opacity="1.000000" stroke="none" 
	d="
M145.347351,155.119415 
	C145.287079,154.900894 145.543152,154.666641 145.954407,154.225494 
	C145.960938,154.380310 145.812317,154.742004 145.347351,155.119415 
z"/>
<path fill="#AC915C" opacity="1.000000" stroke="none" 
	d="
M81.715439,157.947205 
	C81.755516,158.126694 81.506142,158.368790 81.084297,158.802658 
	C81.083214,158.666214 81.254601,158.338013 81.715439,157.947205 
z"/>
<path fill="#A9905D" opacity="1.000000" stroke="none" 
	d="
M206.038849,156.677673 
	C205.887726,156.668549 205.645737,156.376801 205.244537,155.848999 
	C205.372879,155.873627 205.660431,156.134338 206.038849,156.677673 
z"/>
<path fill="#AA8F59" opacity="1.000000" stroke="none" 
	d="
M213.984863,155.274155 
	C214.127808,155.253433 214.383026,155.470581 214.812881,155.868622 
	C214.690720,155.870346 214.393921,155.691193 213.984863,155.274155 
z"/>
<path fill="#AA8F59" opacity="1.000000" stroke="none" 
	d="
M154.995697,154.697632 
	C155.010040,154.981979 154.512543,154.992386 154.263916,154.997192 
	C154.173828,154.704391 154.332367,154.406815 154.714081,153.977402 
	C154.951965,154.034821 154.966660,154.224060 154.995697,154.697632 
z"/>
<path fill="#AC915C" opacity="1.000000" stroke="none" 
	d="
M80.691666,158.915298 
	C80.740089,159.112167 80.489227,159.356705 80.068359,159.798782 
	C80.063026,159.651886 80.227699,159.307419 80.691666,158.915298 
z"/>
<path fill="#AA8F59" opacity="1.000000" stroke="none" 
	d="
M212.025360,153.265350 
	C212.192123,153.227707 212.432495,153.451569 212.821259,153.876007 
	C212.694046,153.877655 212.403809,153.694412 212.025360,153.265350 
z"/>
<path fill="#AC915C" opacity="1.000000" stroke="none" 
	d="
M98.706390,147.007172 
	C98.675880,147.161392 98.327805,147.405777 97.706924,147.818695 
	C97.752357,147.690598 98.070602,147.393982 98.706390,147.007172 
z"/>
<path fill="#AA8F59" opacity="1.000000" stroke="none" 
	d="
M154.876266,152.273346 
	C155.035568,152.233154 155.119308,152.471481 155.078171,152.866821 
	C155.047791,152.992584 154.895187,152.520630 154.876266,152.273346 
z"/>
<path fill="#AA8F59" opacity="1.000000" stroke="none" 
	d="
M154.230560,151.277313 
	C154.386887,151.262344 154.573868,151.493256 154.865204,151.925690 
	C154.673187,152.002991 154.437057,151.801651 154.230560,151.277313 
z"/>
<path fill="#AC915C" opacity="1.000000" stroke="none" 
	d="
M93.725052,150.083130 
	C93.707260,150.234558 93.408569,150.441849 92.872780,150.784866 
	C92.905174,150.660065 93.174667,150.399521 93.725052,150.083130 
z"/>
<path fill="#AA8F59" opacity="1.000000" stroke="none" 
	d="
M153.948517,133.394897 
	C154.013107,133.407196 153.912872,133.524597 153.902008,133.555832 
	C153.891159,133.587067 153.883942,133.382584 153.948517,133.394897 
z"/>
<path fill="#A9905D" opacity="1.000000" stroke="none" 
	d="
M203.304169,213.263794 
	C203.272217,213.123306 203.472031,212.795197 203.840149,212.234406 
	C203.850952,212.359879 203.693436,212.718018 203.304169,213.263794 
z"/>
<path fill="#AA8F59" opacity="1.000000" stroke="none" 
	d="
M155.714996,130.961029 
	C155.739151,131.102982 155.523300,131.364838 155.126740,131.806061 
	C155.122360,131.683929 155.298676,131.382446 155.714996,130.961029 
z"/>
<path fill="#A08859" opacity="1.000000" stroke="none" 
	d="
M148.443817,135.070877 
	C148.066696,135.165634 148.001816,134.801132 147.981216,134.617157 
	C148.337021,134.442780 148.713425,134.452393 149.331238,134.619308 
	C149.322067,134.843124 149.071518,134.909622 148.443817,135.070877 
z"/>
<path fill="#AC915C" opacity="1.000000" stroke="none" 
	d="
M77.782761,170.317123 
	C77.926849,170.285324 78.239532,170.490952 78.771973,170.870728 
	C78.644928,170.881454 78.298141,170.718018 77.782761,170.317123 
z"/>
<path fill="#AC915C" opacity="1.000000" stroke="none" 
	d="
M76.723419,163.620743 
	C76.786385,163.775269 76.604942,164.121964 76.273064,164.719330 
	C76.241417,164.584320 76.360214,164.198624 76.723419,163.620743 
z"/>
<path fill="#AC915C" opacity="1.000000" stroke="none" 
	d="
M78.708229,160.947998 
	C78.732422,161.142502 78.466255,161.374802 77.997223,161.780334 
	C78.002205,161.630966 78.210037,161.308365 78.708229,160.947998 
z"/>
<path fill="#AC915C" opacity="1.000000" stroke="none" 
	d="
M79.690857,159.914169 
	C79.737213,160.111450 79.483292,160.357590 79.053436,160.800369 
	C79.048546,160.652359 79.219566,160.307693 79.690857,159.914169 
z"/>
<path fill="#2F2E2C" opacity="1.000000" stroke="none" 
	d="
M150.578506,175.552338 
	C151.020218,173.657288 151.422211,172.184021 151.919205,170.393402 
	C156.221603,166.638977 161.302277,168.069427 165.944321,167.956177 
	C174.252838,167.753494 182.580215,167.973236 190.902466,167.865326 
	C195.991104,167.799347 200.835175,170.285019 206.500854,169.844574 
	C207.229202,170.598236 207.482605,171.074875 207.890106,171.773788 
	C208.538025,172.519394 208.482788,173.249893 208.827286,174.187836 
	C208.914703,174.849762 208.922302,175.183533 209.008057,175.757202 
	C208.849640,182.515045 208.850418,182.580811 202.112808,182.660858 
	C193.054535,182.768463 183.994904,182.762115 174.473770,182.881500 
	C168.188995,182.904022 162.366302,182.807083 156.543610,182.806778 
	C149.998245,182.806442 149.884338,182.714996 150.578506,175.552338 
z"/>
<path fill="#2E2C29" opacity="1.000000" stroke="none" 
	d="
M154.483948,166.074966 
	C154.376495,163.416763 156.200668,162.050293 157.026825,159.839081 
	C157.148209,159.115952 157.295074,158.730148 157.796753,158.199799 
	C158.882111,157.116516 159.708298,156.212799 160.761749,155.101578 
	C163.510406,153.127182 166.315079,152.459244 169.380188,152.525253 
	C178.640518,152.724701 187.996765,151.549805 197.518860,154.723907 
	C198.794464,155.827469 199.603943,156.750534 200.666779,157.847351 
	C201.224716,158.251602 201.494019,158.517822 201.827118,159.087280 
	C202.815323,161.103943 203.704468,162.853043 204.602325,164.619278 
	C202.750580,166.173416 200.647629,165.224350 198.380478,165.721680 
	C196.305542,168.423721 193.649002,167.767212 191.191376,167.879517 
	C180.597214,168.363708 169.991577,167.620285 159.390228,168.176361 
	C158.004425,168.249039 155.915253,168.210922 154.483948,166.074966 
z"/>
<path fill="#2A2929" opacity="1.000000" stroke="none" 
	d="
M160.431396,150.326996 
	C157.555084,147.364777 155.304169,144.536255 156.773743,140.177307 
	C168.907089,139.007492 180.811523,139.717026 192.706055,139.513779 
	C195.848587,139.460068 198.995148,139.419891 202.552292,139.834290 
	C203.058746,140.844833 203.151337,141.590897 203.296600,142.709442 
	C203.349274,143.081894 203.407776,143.528824 203.331970,143.741058 
	C202.596848,146.234116 201.564911,148.268768 199.244202,149.840393 
	C197.129364,150.941574 194.653961,149.966980 192.771820,152.197662 
	C183.638870,152.697083 174.921341,152.467300 166.204086,152.371597 
	C164.236359,152.349991 162.600891,151.251114 160.431396,150.326996 
z"/>
<path fill="#2B2A2A" opacity="1.000000" stroke="none" 
	d="
M166.982254,119.733292 
	C165.232620,117.976036 163.146652,116.731873 163.244827,113.802864 
	C166.349014,108.044731 171.454697,106.320358 177.627563,105.696091 
	C179.108002,105.620766 180.189209,105.660919 181.675552,105.668915 
	C182.510620,105.543007 182.945145,105.515778 183.681274,105.684921 
	C187.395569,106.410110 190.565140,107.582489 193.624725,109.899521 
	C194.542175,110.434036 195.217758,110.735016 195.700775,111.710968 
	C195.981339,113.144318 196.213089,114.217690 196.477478,115.702698 
	C196.510132,116.114319 196.386826,116.560020 196.281937,116.766083 
	C190.660980,122.542221 183.629822,122.969162 176.008728,122.852135 
	C174.634811,122.626572 173.655197,122.454010 172.332031,122.250336 
	C170.438034,121.314484 168.861130,120.578812 166.982254,119.733292 
z"/>
<path fill="#302E2B" opacity="1.000000" stroke="none" 
	d="
M242.383087,173.010544 
	C239.209854,170.777512 236.397491,168.638199 233.278748,166.393402 
	C224.730621,160.327118 217.745529,153.034744 210.982956,145.509140 
	C210.789719,145.294113 210.628906,144.895920 210.695145,144.647781 
	C210.754089,144.427002 211.149567,144.296036 211.687225,144.105316 
	C217.768845,143.218567 222.125320,146.981583 227.435730,148.922363 
	C230.914276,150.356567 233.873016,151.968262 236.890137,154.187836 
	C237.619873,155.938461 239.399551,156.548950 239.415070,158.601501 
	C241.820572,161.980453 244.435883,164.911499 246.772781,168.049866 
	C247.881226,169.538467 249.434586,171.471085 247.698990,173.335495 
	C246.244125,174.898331 244.371979,173.966110 242.383087,173.010544 
z"/>
<path fill="#2F2E2B" opacity="1.000000" stroke="none" 
	d="
M122.681549,140.083221 
	C124.429680,139.612473 125.861961,139.284088 127.655411,138.872101 
	C128.209717,138.673157 128.402863,138.557785 128.911804,138.323318 
	C129.227570,138.204239 129.262222,138.529526 129.425323,138.544922 
	C134.904388,138.477737 140.220367,138.395157 145.962967,138.258804 
	C146.788879,138.156860 147.159927,138.241745 147.768387,138.574905 
	C148.222244,138.922287 148.411255,139.139404 148.706970,139.545227 
	C141.955246,141.695618 135.676926,145.056900 129.265762,148.061646 
	C123.993629,150.532562 118.758575,151.955139 112.637787,149.918976 
	C111.702156,149.651093 111.144981,149.500916 110.294701,149.332169 
	C109.628105,149.126511 109.229698,149.031631 108.523956,148.920013 
	C107.653740,148.599548 107.011269,148.521729 106.275818,147.995972 
	C106.122795,147.718491 106.217407,147.419601 106.247330,147.265686 
	C110.363892,145.269302 114.450516,143.426819 118.778168,141.329742 
	C120.134682,140.791962 121.250191,140.508759 122.681549,140.083221 
z"/>
<path fill="#2F2E2A" opacity="1.000000" stroke="none" 
	d="
M211.283173,140.034607 
	C218.395813,136.630112 226.113678,137.755844 233.610199,139.326065 
	C240.377289,140.743500 246.792053,143.525818 252.798523,147.658035 
	C251.506042,152.443100 247.143219,151.622696 243.960281,152.660721 
	C242.300293,153.202057 240.235397,153.178589 237.881653,153.272186 
	C234.392395,152.853256 232.055984,150.871414 228.983322,149.518250 
	C224.866928,148.102051 221.528519,145.920670 217.736954,144.746552 
	C216.507187,144.365723 215.388077,143.489212 215.081818,141.563995 
	C213.823929,140.814148 212.726791,140.447266 211.283173,140.034607 
z"/>
<path fill="#292B2B" opacity="1.000000" stroke="none" 
	d="
M160.369186,134.199036 
	C163.947708,129.072342 168.197174,125.045616 175.447006,127.035698 
	C177.916870,127.713676 180.873444,127.711876 183.352081,127.055588 
	C190.241714,125.231377 194.623764,128.820282 198.915588,133.635422 
	C197.139130,135.624298 194.925140,134.424377 192.884842,134.441040 
	C182.190704,134.528351 171.494705,134.578156 160.369186,134.199036 
z"/>
<path fill="#A9905D" opacity="1.000000" stroke="none" 
	d="
M154.020523,165.924805 
	C168.472717,165.612137 182.770035,165.619888 197.527679,165.719482 
	C199.057510,170.710205 203.724350,168.006729 206.633667,169.931030 
	C188.966583,170.086700 170.957367,170.051804 152.481186,170.046478 
	C152.631348,168.799133 153.248489,167.522202 154.020523,165.924805 
z"/>
<path fill="#A9905D" opacity="1.000000" stroke="none" 
	d="
M160.171936,150.364105 
	C170.646652,150.104065 181.282089,150.088837 192.304077,150.135895 
	C192.876572,150.289307 193.062515,150.380402 193.464172,150.695007 
	C193.986511,151.456100 194.155106,152.067307 194.772644,152.775879 
	C195.826599,153.520004 196.660965,154.044479 197.740158,154.736664 
	C185.966919,154.900391 173.948837,154.896378 161.459885,154.893219 
	C161.760666,153.313995 161.342728,151.916092 160.171936,150.364105 
z"/>
<path fill="#9F8655" opacity="1.000000" stroke="none" 
	d="
M214.704956,141.383759 
	C219.532013,143.227234 224.142944,145.273468 228.992935,147.578522 
	C229.416870,149.136414 228.931061,150.047791 227.369843,150.655579 
	C222.197342,148.715530 217.337357,146.638092 212.227661,144.322937 
	C212.814911,143.252319 213.651871,142.419418 214.704956,141.383759 
z"/>
<path fill="#AA8F59" opacity="1.000000" stroke="none" 
	d="
M202.602936,139.906357 
	C187.961914,140.053329 172.957672,140.007919 157.486938,139.930878 
	C160.267319,138.406052 163.729111,139.211929 167.539307,138.944214 
	C177.445114,138.953552 186.903427,138.969116 196.361664,139.005402 
	C198.344193,139.013016 200.357727,138.839325 202.602936,139.906357 
z"/>
<path fill="#22211C" opacity="1.000000" stroke="none" 
	d="
M159.708405,134.056580 
	C172.665543,133.956100 185.392426,133.954697 198.590622,133.946228 
	C199.245575,134.147324 199.441650,134.347000 199.597015,134.574448 
	C199.616226,134.602585 199.418839,134.778687 199.148117,135.015991 
	C198.289047,135.560196 197.533157,135.496857 196.418213,135.373718 
	C187.008377,135.261398 177.962906,135.244751 168.454926,135.314850 
	C165.287964,135.337296 162.583481,135.272995 159.437256,135.109894 
	C159.156387,134.725952 159.317276,134.440811 159.708405,134.056580 
z"/>
<path fill="#A38B56" opacity="1.000000" stroke="none" 
	d="
M195.956451,111.956223 
	C195.233734,111.556282 194.717911,111.041626 194.070557,110.282745 
	C194.831589,110.453064 196.990479,109.305359 195.956451,111.956223 
z"/>
<path fill="#A9905D" opacity="1.000000" stroke="none" 
	d="
M192.765564,150.401169 
	C194.521011,150.131500 196.351395,150.064804 198.580872,150.026108 
	C197.885574,150.361740 196.791183,150.669373 195.350235,150.994080 
	C194.619949,151.399246 194.158951,151.548355 193.313049,151.231323 
	C193.005417,151.004211 192.840500,150.604141 192.765564,150.401169 
z"/>
<path fill="#AA8F59" opacity="1.000000" stroke="none" 
	d="
M193.137177,151.261993 
	C193.449417,151.005096 193.893402,151.005981 194.670532,151.009033 
	C195.001312,151.452164 194.998962,151.893127 194.994415,152.664825 
	C194.417801,152.503616 193.843369,152.011688 193.137177,151.261993 
z"/>
<path fill="#AA8F59" opacity="1.000000" stroke="none" 
	d="
M196.291412,135.375977 
	C196.783234,135.212830 197.512619,135.147614 198.608200,135.114075 
	C198.159256,135.255142 197.344116,135.364532 196.291412,135.375977 
z"/>
<path fill="#AA8F59" opacity="1.000000" stroke="none" 
	d="
M172.349762,122.205872 
	C173.008606,122.177330 174.002274,122.304512 175.296326,122.671951 
	C174.626007,122.728676 173.655289,122.545135 172.349762,122.205872 
z"/>
<path fill="#A38B58" opacity="1.000000" stroke="none" 
	d="
M183.803558,105.724609 
	C183.551300,105.823120 183.123734,105.822716 182.388443,105.729538 
	C182.596558,105.633080 183.112396,105.629395 183.803558,105.724609 
z"/>
<path fill="#A9905D" opacity="1.000000" stroke="none" 
	d="
M208.840652,174.186005 
	C208.618042,173.905838 208.328964,173.295670 208.042053,172.340790 
	C208.287537,172.616043 208.530869,173.236038 208.840652,174.186005 
z"/>
<path fill="#A9905D" opacity="1.000000" stroke="none" 
	d="
M201.773651,159.121094 
	C201.649887,159.093338 201.373596,158.831833 201.008698,158.295715 
	C201.153763,158.309860 201.387421,158.598618 201.773651,159.121094 
z"/>
<path fill="#A08859" opacity="1.000000" stroke="none" 
	d="
M148.029358,138.511932 
	C147.643524,138.656189 147.256744,138.604660 146.629776,138.379074 
	C146.658661,138.157578 146.927734,138.110123 147.601044,137.993958 
	C148.005295,137.925232 148.028412,138.316132 148.029358,138.511932 
z"/>
<path fill="#AA8F59" opacity="1.000000" stroke="none" 
	d="
M203.304413,143.850433 
	C203.256149,143.953293 203.212891,143.507568 203.281082,143.294739 
	C203.420990,143.304001 203.422134,143.525879 203.304413,143.850433 
z"/>
<path fill="#A38B56" opacity="1.000000" stroke="none" 
	d="
M196.259003,116.884338 
	C196.177048,116.972153 196.271027,116.514908 196.390579,116.314613 
	C196.534500,116.362053 196.478104,116.589455 196.259003,116.884338 
z"/>
<path fill="#2E2D2A" opacity="1.000000" stroke="none" 
	d="
M173.586197,186.935501 
	C183.302765,186.949081 192.627945,187.148880 201.949387,187.036804 
	C206.063339,186.987350 207.465515,187.694016 206.307190,192.410492 
	C205.086182,197.382202 203.053772,199.133865 197.898666,199.017731 
	C184.248993,198.710266 170.586411,198.975601 156.464233,199.078064 
	C153.336884,196.573288 153.331726,192.946442 152.371887,189.730103 
	C151.647064,187.301331 153.567123,187.124222 155.302994,187.104675 
	C159.234024,187.060471 163.165314,187.040939 167.561279,186.949188 
	C168.329346,186.629929 168.647476,186.392899 169.275940,186.126587 
	C170.492569,187.501724 171.938675,186.871460 173.586197,186.935501 
z"/>
<path fill="#2C2C2B" opacity="1.000000" stroke="none" 
	d="
M176.601242,203.151733 
	C183.872894,203.245621 190.752182,203.332855 197.621872,203.636932 
	C199.115723,203.703064 202.202118,202.430527 201.082245,206.624832 
	C198.206223,215.119003 192.240204,217.076218 184.229675,216.206818 
	C178.805771,215.618118 173.260483,216.189865 167.769974,216.157913 
	C164.179062,216.137024 157.668839,208.628052 158.033157,205.150604 
	C158.182220,203.727676 159.176758,203.682861 160.131241,203.606796 
	C162.452469,203.421860 164.780991,203.328079 167.547104,203.117035 
	C169.319183,202.070526 170.822983,202.637619 172.630280,202.787354 
	C174.072861,203.085983 175.139145,203.154419 176.601242,203.151733 
z"/>
<path fill="#2F2E2B" opacity="1.000000" stroke="none" 
	d="
M177.308594,228.290024 
	C175.341309,227.137573 173.656662,226.139908 171.669586,225.030212 
	C170.984100,224.807327 170.645248,224.617554 170.173706,224.112335 
	C169.996826,223.875793 170.000198,224.003464 170.064026,224.001801 
	C169.803696,223.783463 169.522781,223.521210 169.186646,222.935532 
	C169.197372,221.763107 169.623947,221.058548 170.585175,221.023895 
	C176.926559,220.795395 183.270996,220.559341 190.081223,221.240326 
	C188.564194,224.609146 185.916870,225.940216 183.276321,227.752411 
	C182.668396,228.323517 182.246628,228.493637 181.399658,228.367996 
	C180.569946,228.308746 180.086182,228.348724 179.240417,228.429840 
	C178.448761,228.490189 178.019699,228.481506 177.308594,228.290024 
z"/>
<path fill="#A9905D" opacity="1.000000" stroke="none" 
	d="
M172.711945,202.858109 
	C171.610214,203.068481 170.213852,203.119415 168.402573,203.103424 
	C169.405136,202.149368 170.872559,201.916763 172.711945,202.858109 
z"/>
<path fill="#A38B58" opacity="1.000000" stroke="none" 
	d="
M177.192566,228.240326 
	C177.447617,228.165192 177.869263,228.195160 178.584656,228.348053 
	C178.371994,228.429123 177.865585,228.387268 177.192566,228.240326 
z"/>
<path fill="#A38B58" opacity="1.000000" stroke="none" 
	d="
M181.254364,228.326996 
	C181.483765,228.163849 181.913803,228.058929 182.677368,227.955429 
	C182.492249,228.099655 181.973618,228.242447 181.254364,228.326996 
z"/>
<path fill="#A38B58" opacity="1.000000" stroke="none" 
	d="
M170.216034,224.060760 
	C170.344940,224.054321 170.693054,224.232849 171.204163,224.664764 
	C171.056503,224.694031 170.745880,224.469864 170.216034,224.060760 
z"/>
<path fill="#A38B58" opacity="1.000000" stroke="none" 
	d="
M169.241074,222.898926 
	C169.378723,222.918640 169.675858,223.172623 170.050446,223.713379 
	C169.885437,223.711166 169.643005,223.422180 169.241074,222.898926 
z"/>
<path fill="#A9905D" opacity="1.000000" stroke="none" 
	d="
M169.306625,186.199356 
	C169.277847,186.353745 168.986481,186.633240 168.360580,186.899872 
	C168.365372,186.699478 168.704697,186.511963 169.306625,186.199356 
z"/>
<path fill="#2B2C2A" opacity="1.000000" stroke="none" 
	d="
M142.830704,152.781586 
	C135.747833,158.469376 128.772308,164.226608 121.727272,169.897507 
	C120.069679,171.231781 118.177635,172.274811 116.175858,173.711761 
	C115.958275,173.971710 115.994629,174.001465 115.991302,173.978790 
	C115.854256,174.086533 115.720543,174.216934 115.312119,174.292419 
	C110.713654,173.599991 109.954109,172.248596 112.373367,168.605118 
	C116.258156,162.754486 121.168861,157.758041 127.039017,153.951324 
	C133.442078,149.799042 140.840851,147.616928 147.758484,144.472260 
	C148.484543,144.142197 149.343414,143.860764 149.863770,145.276611 
	C149.700241,146.217987 149.206635,146.480743 148.430206,146.833008 
	C147.625381,147.616516 146.990051,148.159225 146.216125,148.987167 
	C145.450211,149.516449 145.520554,150.186905 145.014343,150.813629 
	C144.788742,150.984375 144.958557,151.005630 144.969147,150.920715 
	C144.798080,151.154968 144.572128,151.438873 144.069855,151.833038 
	C143.837814,151.978561 143.975952,151.985794 143.979523,151.916718 
	C143.798737,152.163040 143.568176,152.439133 143.062180,152.827271 
	C142.840485,152.985062 142.912659,152.819489 142.830704,152.781586 
z"/>
<path fill="#2C2B29" opacity="1.000000" stroke="none" 
	d="
M84.984299,160.675858 
	C87.706642,158.833496 90.259666,157.230194 93.056519,155.382767 
	C94.380402,154.596741 95.460464,154.054855 96.752579,153.291138 
	C97.365486,152.571762 97.963203,152.516296 98.737030,152.176010 
	C98.951187,151.976593 98.992455,152.008865 98.990692,151.982727 
	C99.264046,151.703537 99.553749,151.468460 100.124741,151.165848 
	C102.312920,151.379517 104.234352,151.678635 106.519814,152.015900 
	C107.360374,152.404907 107.921196,152.494247 108.737869,152.703644 
	C110.472412,154.017090 109.515343,154.752457 108.506081,155.473877 
	C101.387169,160.562515 94.023590,165.173630 85.373436,167.251495 
	C83.558739,167.687408 81.744576,168.040314 80.851303,165.332428 
	C80.801773,164.757919 80.780006,164.546906 81.052681,164.215256 
	C82.503082,163.034729 83.659035,161.974838 84.984299,160.675858 
z"/>
<path fill="#47432D" opacity="1.000000" stroke="none" 
	d="
M114.997795,156.990997 
	C115.211845,156.124573 115.713577,155.197632 116.535927,155.740341 
	C117.169739,156.158615 116.490479,156.842438 115.794266,157.429596 
	C115.443848,157.452530 115.315918,157.321121 114.997795,156.990997 
z"/>
<path fill="#9F8655" opacity="1.000000" stroke="none" 
	d="
M110.284149,149.357391 
	C110.607689,149.318542 111.188858,149.415680 112.002060,149.703766 
	C111.669983,149.760925 111.105881,149.627167 110.284149,149.357391 
z"/>
<path fill="#9F8655" opacity="1.000000" stroke="none" 
	d="
M106.337753,147.936005 
	C106.676369,147.969299 107.229942,148.220108 108.000076,148.687103 
	C107.661995,148.653351 107.107353,148.403427 106.337753,147.936005 
z"/>
<path fill="#AC915C" opacity="1.000000" stroke="none" 
	d="
M98.685272,152.078400 
	C98.482933,152.311707 98.014671,152.646805 97.255516,153.025604 
	C97.449539,152.772934 97.934448,152.476562 98.685272,152.078400 
z"/>
<path fill="#9F8655" opacity="1.000000" stroke="none" 
	d="
M108.744118,152.695038 
	C108.421387,152.721634 107.853287,152.606461 107.084511,152.272675 
	C107.422142,152.220459 107.960442,152.386871 108.744118,152.695038 
z"/>
<path fill="#A9925B" opacity="1.000000" stroke="none" 
	d="
M144.977371,150.791321 
	C145.057327,150.509277 145.325912,150.034180 145.836029,149.415741 
	C145.773697,149.714340 145.469849,150.156296 144.977371,150.791321 
z"/>
<path fill="#AA8F59" opacity="1.000000" stroke="none" 
	d="
M148.501495,146.930145 
	C148.645782,146.666870 149.030853,146.259918 149.671158,145.725616 
	C149.531693,145.994324 149.136993,146.390396 148.501495,146.930145 
z"/>
<path fill="#AA8F59" opacity="1.000000" stroke="none" 
	d="
M157.790543,158.015137 
	C157.897217,158.392853 157.738495,158.765472 157.345734,159.340134 
	C157.093948,159.285416 157.076218,159.028625 157.026428,158.387085 
	C157.171326,158.004913 157.348251,158.007477 157.790543,158.015137 
z"/>
<path fill="#A9925B" opacity="1.000000" stroke="none" 
	d="
M143.034790,152.799194 
	C143.027496,152.649857 143.214508,152.314636 143.692291,151.913544 
	C143.731766,152.102890 143.480438,152.358124 143.034790,152.799194 
z"/>
<path fill="#A9925B" opacity="1.000000" stroke="none" 
	d="
M144.034363,151.794434 
	C144.023346,151.642792 144.208862,151.307037 144.687057,150.903534 
	C144.730118,151.093979 144.480515,151.352158 144.034363,151.794434 
z"/>
<path fill="#AC915C" opacity="1.000000" stroke="none" 
	d="
M100.149246,151.213165 
	C100.107536,151.325424 99.823586,151.570465 99.264282,151.886047 
	C99.294960,151.753036 99.600983,151.549469 100.149246,151.213165 
z"/>
<path fill="#A9925B" opacity="1.000000" stroke="none" 
	d="
M115.165771,174.246628 
	C115.037399,174.237488 115.495674,174.039536 115.741821,173.997833 
	C115.788971,174.133713 115.557693,174.233597 115.165771,174.246628 
z"/>
<path fill="#AC915C" opacity="1.000000" stroke="none" 
	d="
M81.240265,164.175385 
	C81.281219,164.253143 81.215317,164.411652 80.986465,164.769531 
	C80.836189,164.690384 80.939476,164.452789 81.240265,164.175385 
z"/>
<path fill="#2E2E2D" opacity="1.000000" stroke="none" 
	d="
M274.336487,168.050415 
	C265.504944,164.022598 256.923187,160.062592 248.652847,154.797638 
	C248.930054,150.934998 250.643967,149.968918 256.603180,150.537384 
	C263.609131,153.915527 270.066772,157.292664 275.732666,162.029816 
	C278.983612,164.747879 279.119232,166.727768 274.336487,168.050415 
z"/>
<path fill="#B3985D" opacity="1.000000" stroke="none" 
	d="
M256.888824,150.487610 
	C254.216095,151.943634 251.455643,153.073196 248.503525,154.463272 
	C247.642258,155.492783 246.972656,156.261780 246.142578,157.289917 
	C245.982117,157.549057 246.008224,157.953293 246.024857,158.150665 
	C246.041489,158.348053 245.674408,158.452393 245.579544,158.218750 
	C245.484680,157.985107 245.330872,158.266998 245.436310,158.399506 
	C245.541763,158.532013 245.405853,158.842499 245.246750,158.900848 
	C243.438705,158.963013 241.789764,158.966843 239.730164,158.967499 
	C238.296677,158.180496 237.273849,157.396652 236.119293,156.316010 
	C235.427582,154.436020 235.180389,152.891891 236.780334,151.296570 
	C242.306290,151.312576 247.213669,149.516708 252.574524,148.094467 
	C254.574112,148.084015 256.197174,148.222733 256.888824,150.487610 
z"/>
<path fill="#282729" opacity="1.000000" stroke="none" 
	d="
M245.297958,159.074966 
	C245.087646,158.959183 245.047073,158.472626 244.985931,158.262726 
	C245.069168,157.902145 245.213577,157.751480 245.670044,157.574921 
	C246.418106,158.159531 246.854095,158.770004 247.139160,159.729828 
	C246.988235,160.079178 246.498306,160.058289 246.255310,160.027191 
	C245.922821,159.678497 245.754807,159.410049 245.297958,159.074966 
z"/>
<path fill="#A08859" opacity="1.000000" stroke="none" 
	d="
M129.020462,138.291046 
	C129.141861,138.585678 128.903854,138.786713 128.265076,138.797928 
	C128.272079,138.632034 128.537674,138.495132 129.020462,138.291046 
z"/>
<path fill="#A68E57" opacity="1.000000" stroke="none" 
	d="
M236.713165,150.864059 
	C238.888336,152.824631 238.654037,154.351776 236.224670,155.831329 
	C233.215775,154.386337 230.443954,152.753464 227.364746,150.956787 
	C227.639099,149.954468 228.220856,149.115952 229.017303,148.057388 
	C231.625153,148.786270 234.018311,149.735184 236.713165,150.864059 
z"/>
<path fill="#A9905B" opacity="1.000000" stroke="none" 
	d="
M244.043945,157.204681 
	C243.069656,156.544556 241.857300,156.141815 242.857773,155.312119 
	C243.553177,154.735458 244.214966,155.823837 244.902435,156.606537 
	C244.839462,157.025162 244.629288,157.236221 244.043945,157.204681 
z"/>
<path fill="#282729" opacity="1.000000" stroke="none" 
	d="
M243.842117,157.199554 
	C243.898834,156.936966 244.128937,156.911850 244.704330,156.850403 
	C245.106735,157.027985 245.163834,157.241882 245.072861,157.754303 
	C244.924774,158.052811 244.972397,158.019409 244.995483,158.002319 
	C244.684204,157.802490 244.349854,157.619766 243.842117,157.199554 
z"/>
</svg>